<svg height="512pt" viewBox="-31 0 512 512" width="512pt" xmlns="http://www.w3.org/2000/svg"><path d="m255 300v197c0 8.402344-6.597656 15-15 15h-30c-8.402344 0-15-6.597656-15-15v-197zm0 0" fill="#a8d3d8"/><path d="m255 300v197c0 8.402344-6.597656 15-15 15h-15v-212zm0 0" fill="#7ca1b1"/><path d="m450 15v270c0 8.402344-6.597656 15-15 15h-420c-8.402344 0-15-6.597656-15-15v-270c0-8.402344 6.597656-15 15-15h420c8.402344 0 15 6.597656 15 15zm0 0" fill="#ec5569"/><path d="m450 15v270c0 8.402344-6.597656 15-15 15h-210v-300h210c8.402344 0 15 6.597656 15 15zm0 0" fill="#cc2e43"/><path d="m240 75v120c0 8.402344-6.597656 15-15 15s-15-6.597656-15-15v-120c0-8.402344 6.597656-15 15-15s15 6.597656 15 15zm0 0" fill="#deecf1"/><path d="m180 105c0-24.8125-20.1875-45-45-45h-30c-8.289062 0-15 6.710938-15 15v120c0 8.289062 6.710938 15 15 15h30c24.8125 0 45-20.1875 45-45 0-11.566406-4.507812-22.019531-11.703125-30 7.195313-7.980469 11.703125-18.433594 11.703125-30zm-60-15h15c8.277344 0 15 6.722656 15 15s-6.722656 15-15 15h-15zm15 90h-15v-30h15c8.277344 0 15 6.722656 15 15s-6.722656 15-15 15zm0 0" fill="#deecf1"/><path d="m315 210h-30c-8.289062 0-15-6.710938-15-15v-120c0-8.289062 6.710938-15 15-15h30c24.8125 0 45 20.1875 45 45v60c0 24.8125-20.1875 45-45 45zm-15-30h15c8.277344 0 15-6.722656 15-15v-60c0-8.277344-6.722656-15-15-15h-15zm0 0" fill="#a8d3d8"/><path d="m225 210v-150c8.402344 0 15 6.597656 15 15v120c0 8.402344-6.597656 15-15 15zm0 0" fill="#a8d3d8"/><path d="m315 270h-180c-8.402344 0-15 6.597656-15 15v30c0 8.402344 6.597656 15 15 15h180c8.402344 0 15-6.597656 15-15v-30c0-8.402344-6.597656-15-15-15zm0 0" fill="#deecf1"/><path d="m330 285v30c0 8.402344-6.597656 15-15 15h-90v-60h90c8.402344 0 15 6.597656 15 15zm0 0" fill="#a8d3d8"/></svg>